<?xml version="1.0" encoding="UTF-8" standalone="no"?>
<svg
   xmlns:dc="http://purl.org/dc/elements/1.1/"
   xmlns:cc="http://creativecommons.org/ns#"
   xmlns:rdf="http://www.w3.org/1999/02/22-rdf-syntax-ns#"
   xmlns:svg="http://www.w3.org/2000/svg"
   xmlns="http://www.w3.org/2000/svg"
   xmlns:sodipodi="http://sodipodi.sourceforge.net/DTD/sodipodi-0.dtd"
   xmlns:inkscape="http://www.inkscape.org/namespaces/inkscape"
   version="1.1"
   id="Layer_1"
   x="0px"
   y="0px"
   viewBox="0 0 400 225"
   style="enable-background:new 0 0 400 225;"
   xml:space="preserve"
   sodipodi:docname="sort-paragraphs.svg"
   inkscape:version="1.0.1 (3bc2e813f5, 2020-09-07)"><metadata
   id="metadata2489"><rdf:RDF><cc:Work
       rdf:about=""><dc:format>image/svg+xml</dc:format><dc:type
         rdf:resource="http://purl.org/dc/dcmitype/StillImage" /><dc:title>accordion</dc:title></cc:Work></rdf:RDF></metadata><defs
   id="defs2487">
	

		
		
	
			
			
			
			
			
			
			
			
			
			
			
			
			
			
			
		</defs><sodipodi:namedview
   pagecolor="#ffffff"
   bordercolor="#666666"
   borderopacity="1"
   objecttolerance="10"
   gridtolerance="10"
   guidetolerance="10"
   inkscape:pageopacity="0"
   inkscape:pageshadow="2"
   inkscape:window-width="1860"
   inkscape:window-height="1016"
   id="namedview2485"
   showgrid="false"
   inkscape:zoom="1.0436737"
   inkscape:cx="182.3356"
   inkscape:cy="224.4269"
   inkscape:window-x="60"
   inkscape:window-y="27"
   inkscape:window-maximized="1"
   inkscape:current-layer="Layer_1" />
<style
   type="text/css"
   id="style2444">
	.st0{fill:#DDDDDD;}
	.st1{fill:#C6C6C6;}
	.st2{fill:#8DB7E2;}
	.st3{fill:#2376C1;}
	.st4{fill:none;}
</style>
<title
   id="title2446">accordion</title>
<rect
   class="st4"
   width="400"
   height="225"
   id="rect2480"
   x="0"
   y="0" />
<path
   class="st2"
   d="m 122.8,32.1 h 164.4 c 1.7,0 3,1.4 3,3 v 21.6 c 0,1.7 -1.4,3 -3,3 H 122.8 c -1.7,0 -3,-1.4 -3,-3 V 35.1 c 0,-1.7 1.3,-3 3,-3 z"
   id="path2452"
   style="fill:#97baf6;fill-opacity:1" /><rect
   x="148.10001"
   y="41.299999"
   class="st3"
   width="56.400002"
   height="9.3000002"
   id="rect2470"
   style="fill:#f0f1f5;fill-opacity:1" /><rect
   x="208.98984"
   y="41.299999"
   class="st3"
   width="16.168854"
   height="9.3000002"
   id="rect2460-1-0-5-9"
   style="fill:#f0f1f5;stroke-width:1;font-variation-settings:normal;opacity:1;vector-effect:none;fill-opacity:1;stroke-linecap:butt;stroke-linejoin:miter;stroke-miterlimit:4;stroke-dasharray:none;stroke-dashoffset:0;stroke-opacity:1;stop-color:#000000;stop-opacity:1" /><path
   class="st2"
   d="m 122.8,165.3 h 164.4 c 1.7,0 3,1.4 3,3 v 21.6 c 0,1.7 -1.4,3 -3,3 H 122.8 c -1.7,0 -3,-1.4 -3,-3 v -21.6 c 0,-1.7 1.3,-3 3,-3 z"
   id="path2456"
   style="font-variation-settings:normal;opacity:1;vector-effect:none;fill:#97baf6;fill-opacity:1;stroke-width:1;stroke-linecap:butt;stroke-linejoin:miter;stroke-miterlimit:4;stroke-dasharray:none;stroke-dashoffset:0;stroke-opacity:1;stop-color:#000000;stop-opacity:1" /><rect
   x="148.10001"
   y="174.39999"
   class="st3"
   width="26.858919"
   height="9.3999996"
   id="rect2458"
   style="stroke-width:1;font-variation-settings:normal;opacity:1;vector-effect:none;fill:#f0f1f5;fill-opacity:1;stroke-linecap:butt;stroke-linejoin:miter;stroke-miterlimit:4;stroke-dasharray:none;stroke-dashoffset:0;stroke-opacity:1;stop-color:#000000;stop-opacity:1" /><rect
   x="180.481"
   y="174.39999"
   class="st3"
   width="44.648788"
   height="9.3999996"
   id="rect2458-7"
   style="fill:#f0f1f5;stroke-width:1;font-variation-settings:normal;opacity:1;vector-effect:none;fill-opacity:1;stroke-linecap:butt;stroke-linejoin:miter;stroke-miterlimit:4;stroke-dasharray:none;stroke-dashoffset:0;stroke-opacity:1;stop-color:#000000;stop-opacity:1" /><path
   class="st2"
   d="m 122.8,130.52617 h 164.4 c 1.7,0 3,1.4 3,3 v 21.6 c 0,1.7 -1.4,3 -3,3 H 122.8 c -1.7,0 -3,-1.4 -3,-3 v -21.6 c 0,-1.7 1.3,-3 3,-3 z"
   id="path2456-1"
   style="fill:#97baf6;font-variation-settings:normal;opacity:1;vector-effect:none;fill-opacity:1;stroke-width:1;stroke-linecap:butt;stroke-linejoin:miter;stroke-miterlimit:4;stroke-dasharray:none;stroke-dashoffset:0;stroke-opacity:1;stop-color:#000000;stop-opacity:1" /><rect
   x="148.10001"
   y="139.62616"
   class="st3"
   width="26.858919"
   height="9.3999996"
   id="rect2458-3"
   style="fill:#f0f1f5;stroke-width:1;font-variation-settings:normal;opacity:1;vector-effect:none;fill-opacity:1;stroke-linecap:butt;stroke-linejoin:miter;stroke-miterlimit:4;stroke-dasharray:none;stroke-dashoffset:0;stroke-opacity:1;stop-color:#000000;stop-opacity:1" /><rect
   x="180.481"
   y="139.62616"
   class="st3"
   width="44.648788"
   height="9.3999996"
   id="rect2458-7-1"
   style="fill:#f0f1f5;stroke-width:1;font-variation-settings:normal;opacity:1;vector-effect:none;fill-opacity:1;stroke-linecap:butt;stroke-linejoin:miter;stroke-miterlimit:4;stroke-dasharray:none;stroke-dashoffset:0;stroke-opacity:1;stop-color:#000000;stop-opacity:1" /><path
   id="path2454-0"
   style="font-variation-settings:normal;vector-effect:none;fill:none;fill-opacity:1;stroke:#c6c6c6;stroke-width:2.80192;stroke-linecap:butt;stroke-linejoin:miter;stroke-miterlimit:4;stroke-dasharray:5.60384, 5.60384;stroke-dashoffset:2.80192;stroke-opacity:1;stop-color:#000000"
   d="m 124.15154,68.274919 c -1.67156,0 -2.9498,1.234205 -2.9498,2.848164 v 5.342161 15.164248 1.56686 3.775298 1.566861 15.166099 5.34217 c 0,1.51902 1.27824,2.84816 2.9498,2.84816 h 161.64763 c 1.57322,0 2.9498,-1.2342 2.9498,-2.84816 V 113.70461 98.538511 96.97165 93.196352 91.629492 76.465244 71.123083 c 0,-1.519021 -1.27824,-2.848164 -2.9498,-2.848164 z" /><g
   id="g3862"
   transform="translate(4.4646077,2.3618813)"><path
     id="path2454-9"
     style="font-variation-settings:normal;opacity:0.2;vector-effect:none;fill:#000000;fill-opacity:1;stroke-width:1;stroke-linecap:butt;stroke-linejoin:miter;stroke-miterlimit:4;stroke-dasharray:none;stroke-dashoffset:0;stroke-opacity:1;stop-color:#000000;stop-opacity:1"
     d="m 139.46696,82.43399 c -1.7,0 -3,1.3 -3,3 v 5.626953 15.972657 1.65039 3.97656 1.65039 15.97461 5.62696 c 0,1.6 1.3,3 3,3 H 303.8654 c 1.6,0 3,-1.3 3,-3 v -5.62696 -15.97461 -1.65039 -3.97656 -1.65039 -15.972657 -5.626953 c 0,-1.6 -1.3,-3 -3,-3 z" /><g
     id="g3292"
     transform="translate(10.840273,3.087796)"><path
       id="path2454"
       style="font-variation-settings:normal;opacity:1;vector-effect:none;fill:#51bc86;fill-opacity:1;stroke-width:1;stroke-linecap:butt;stroke-linejoin:miter;stroke-miterlimit:4;stroke-dasharray:none;stroke-dashoffset:0;stroke-opacity:1;stop-color:#000000;stop-opacity:1"
       d="m 122.80078,74.300781 c -1.7,0 -3,1.3 -3,3 v 5.626953 15.972657 1.650389 3.97656 1.65039 15.97461 5.62696 c 0,1.6 1.3,3 3,3 h 164.39844 c 1.6,0 3,-1.3 3,-3 v -5.62696 -15.97461 -1.65039 -3.97656 -1.650389 -15.972657 -5.626953 c 0,-1.6 -1.3,-3 -3,-3 z" /><rect
       x="148.10001"
       y="83.400002"
       class="st3"
       width="43.200001"
       height="9.3000002"
       id="rect2460"
       style="font-variation-settings:normal;opacity:1;vector-effect:none;fill:#f0f1f5;fill-opacity:1;stroke-width:1;stroke-linecap:butt;stroke-linejoin:miter;stroke-miterlimit:4;stroke-dasharray:none;stroke-dashoffset:0;stroke-opacity:1;stop-color:#000000;stop-opacity:1" /><rect
       x="147.78169"
       y="97.410477"
       class="st3"
       width="71.936722"
       height="9.3000002"
       id="rect2470-0"
       style="font-variation-settings:normal;opacity:1;vector-effect:none;fill:#f0f1f5;fill-opacity:1;stroke-width:1;stroke-linecap:butt;stroke-linejoin:miter;stroke-miterlimit:4;stroke-dasharray:none;stroke-dashoffset:0;stroke-opacity:1;stop-color:#000000;stop-opacity:1" /><rect
       x="196.8087"
       y="83.400002"
       class="st3"
       width="33.752415"
       height="9.3000002"
       id="rect2460-1"
       style="font-variation-settings:normal;opacity:1;vector-effect:none;fill:#f0f1f5;fill-opacity:1;stroke-width:1;stroke-linecap:butt;stroke-linejoin:miter;stroke-miterlimit:4;stroke-dasharray:none;stroke-dashoffset:0;stroke-opacity:1;stop-color:#000000;stop-opacity:1" /><rect
       x="147.76613"
       y="112.27225"
       class="st3"
       width="26.55481"
       height="9.3000002"
       id="rect2460-1-0"
       style="font-variation-settings:normal;opacity:1;vector-effect:none;fill:#f0f1f5;fill-opacity:1;stroke-width:1;stroke-linecap:butt;stroke-linejoin:miter;stroke-miterlimit:4;stroke-dasharray:none;stroke-dashoffset:0;stroke-opacity:1;stop-color:#000000;stop-opacity:1" /><rect
       x="179.07889"
       y="112.27225"
       class="st3"
       width="16.168854"
       height="9.3000002"
       id="rect2460-1-0-5"
       style="font-variation-settings:normal;opacity:1;vector-effect:none;fill:#f0f1f5;fill-opacity:1;stroke-width:1;stroke-linecap:butt;stroke-linejoin:miter;stroke-miterlimit:4;stroke-dasharray:none;stroke-dashoffset:0;stroke-opacity:1;stop-color:#000000;stop-opacity:1" /><rect
       x="199.85512"
       y="112.27225"
       class="st3"
       width="40.343548"
       height="9.3000002"
       id="rect2460-1-0-5-1"
       style="font-variation-settings:normal;opacity:1;vector-effect:none;fill:#f0f1f5;fill-opacity:1;stroke-width:1;stroke-linecap:butt;stroke-linejoin:miter;stroke-miterlimit:4;stroke-dasharray:none;stroke-dashoffset:0;stroke-opacity:1;stop-color:#000000;stop-opacity:1" /></g></g></svg>
